<svg width="80" height="80" viewBox="0 0 80 80" fill="none" xmlns="http://www.w3.org/2000/svg">
<path d="M80 40C80 62.0914 62.0914 80 40 80C17.9086 80 0 62.0914 0 40C0 17.9086 17.9086 0 40 0C62.0914 0 80 17.9086 80 40Z" fill="#040F1A"/>
<path d="M17.7322 26.768C16.7559 25.7914 16.7559 24.2086 17.7322 23.232C18.7086 22.2563 20.2914 22.2563 21.268 23.232L36.2656 38.2344C37.2422 39.2109 37.2422 40.789 36.2656 41.7656L21.268 56.7656C20.2914 57.7422 18.7086 57.7422 17.7322 56.7656C16.7559 55.789 16.7559 54.2109 17.7322 53.2343L30.9609 40L17.7322 26.768ZM59.5 52.5C60.8828 52.5 62 53.6172 62 55C62 56.3828 60.8828 57.5 59.5 57.5H37C35.6172 57.5 34.5 56.3828 34.5 55C34.5 53.6172 35.6172 52.5 37 52.5H59.5Z" fill="white"/>
<path d="M35.7353 38.7647L35.7352 38.7646L20.7379 23.7626C20.7378 23.7625 20.7378 23.7625 20.7378 23.7625C20.054 23.0794 18.9458 23.0795 18.2623 23.7625C17.5791 24.4462 17.5792 25.5541 18.2626 26.2377C18.2626 26.2377 18.2626 26.2377 18.2626 26.2377L31.4913 39.4697L32.0214 39.9999L31.4914 40.5302L18.2626 53.7646L18.2626 53.7646C17.5791 54.4483 17.5791 55.5516 18.2626 56.2353L35.7353 38.7647ZM35.7353 38.7647C36.419 39.4484 36.419 40.5516 35.7353 41.2353L35.7353 41.2353M35.7353 38.7647L35.7353 41.2353M35.7353 41.2353L20.7376 56.2353M35.7353 41.2353L20.7376 56.2353M20.7376 56.2353C20.054 56.9189 18.9461 56.9189 18.2626 56.2353L20.7376 56.2353ZM17.2018 27.2982L17.2018 27.2982L29.9005 40L17.2018 52.7041C15.9327 53.9735 15.9327 56.0264 17.2018 57.2958L17.2018 57.2959C18.4711 58.5654 20.5289 58.5654 21.7983 57.2959L21.7983 57.2959L36.796 42.2959C36.796 42.2959 36.796 42.2959 36.796 42.2959C38.0654 41.0265 38.0654 38.9736 36.796 37.7041C36.796 37.7041 36.796 37.7041 36.796 37.704L21.7984 22.7018L21.7981 22.7015C20.5287 21.4331 18.4713 21.4331 17.202 22.7015L17.2018 22.7018C15.9327 23.9712 15.9327 26.0288 17.2018 27.2982ZM79.25 40C79.25 61.6772 61.6772 79.25 40 79.25C18.3228 79.25 0.75 61.6772 0.75 40C0.75 18.3228 18.3228 0.75 40 0.75C61.6772 0.75 79.25 18.3228 79.25 40ZM59.5 53.25C60.4686 53.25 61.25 54.0314 61.25 55C61.25 55.9686 60.4686 56.75 59.5 56.75H37C36.0314 56.75 35.25 55.9686 35.25 55C35.25 54.0314 36.0314 53.25 37 53.25H59.5ZM62.75 55C62.75 53.2029 61.297 51.75 59.5 51.75H37C35.203 51.75 33.75 53.2029 33.75 55C33.75 56.797 35.203 58.25 37 58.25H59.5C61.297 58.25 62.75 56.797 62.75 55Z" stroke="#3294F8" stroke-width="1.5"/>
</svg>
